<?xml version="1.0" encoding="UTF-8"?>
<svg xmlns="http://www.w3.org/2000/svg" version="1.1" viewBox="0 0 91.2 91.2">
  <defs>
    <style>
      .cls-1 {
        fill: #fff;
      }

      .cls-2 {
        fill: #0092d7;
      }

      .cls-3 {
        fill: #2ac1f0;
      }
    </style>
  </defs>
  <!-- Generator: Adobe Illustrator 28.7.4, SVG Export Plug-In . SVG Version: 1.2.0 Build 166)  -->
  <g>
    <g id="Layer_1">
      <circle class="cls-1" cx="45.6" cy="45.6" r="45.6"/>
      <g>
        <path class="cls-2" d="M61.4,18.5c-1.8-1.3-3.7-2.3-5.6-3.1,0,0-.5-.3-.7-.3-.3,0-.5-.2-.7-.3l1.4-2c1.9-2.3-2.3-1.7-2.9-1.6-13.6,3.2-21.3,5.2-15.8,11.2,1.6,1.7,10.7,10.3,13.7,10.8,1.4.2.2-4.3.2-4.3.2,0,.3.1.5.1.6.3,1.2.6,1.7,1.1,7.4,5.3,9.2,15.6,3.9,23.1-3,4-7.4,6.4-12,6.8l13.5,9.6c.2-.1.4-.2.6-.3,3.6-2.1,6.7-4.9,9.2-8.5,9.7-13.6,6.5-32.6-7.2-42.2Z"/>
        <path class="cls-3" d="M33.4,50.1c-1.2-.6-1.4,4.8-1.4,4.8-.6-.4-1-.8-1.5-1.4-4.2-5.6-4.5-13.5-.3-19.5,2.2-3.2,5.4-5.2,8.8-6.3-2.1-2-3.7-3.6-3.7-3.6-2.2-2.3-3-4.5-2.3-6.7.4-1.4,1.3-2.4,2.6-3.4-6.5,1.8-12.3,5.7-16.5,11.6-9,12.7-6.8,30,4.6,40.1l.7.6-2.1,1.6c-2.5,1.6,1.6,2.4,2.3,2.5,14,1.2,22,1.7,18.5-5.7-.9-2.1-6.9-13.2-9.7-14.6Z"/>
        <path class="cls-2" d="M54.7,71.6c-2.9-2.1-5.7-4.1-8.5-5.9.4,1.4.5,3.2-.5,4.8-1.8,2.8-5.9,3.2-9.6,3.2h-1.7l.7.5,12.2,8.7c2.8-.3,5.4-1,7.9-2.1,1.1-.4,2.1-.9,3.2-1.6.1,0,.3-.1.5-.3,1.2-.6,2.3-1.4,3.4-2.2-2.5-1.7-4.9-3.4-7.4-5.2Z"/>
      </g>
    </g>
  </g>
</svg>